<svg width="406" height="406" viewBox="0 0 406 406" fill="none" xmlns="http://www.w3.org/2000/svg">
<g clip-path="url(#clip0_1656_8936)">
<path d="M82.8562 82.857C16.5872 149.126 16.5872 256.569 82.8562 322.838C149.125 389.107 256.568 389.107 322.837 322.838C389.106 256.569 389.106 149.126 322.837 82.857C256.568 16.588 149.125 16.588 82.8562 82.857Z" fill="black" stroke="white" stroke-width="1.25"/>
<path d="M88.9329 89.6156C26.3124 152.236 26.3124 253.764 88.9329 316.384C151.553 379.005 253.081 379.005 315.702 316.384C378.322 253.764 378.322 152.236 315.702 89.6156C253.081 26.9952 151.553 26.9952 88.9329 89.6156Z" fill="black" stroke="white" stroke-width="1.25"/>
<mask id="mask0_1656_8936" style="mask-type:alpha" maskUnits="userSpaceOnUse" x="42" y="43" width="320" height="320">
<path d="M89.7927 90.3684C27.6656 152.495 27.6656 253.223 89.7927 315.35C151.92 377.477 252.648 377.477 314.775 315.35C376.902 253.223 376.902 152.495 314.775 90.3684C252.648 28.2414 151.92 28.2413 89.7927 90.3684Z" fill="black" stroke="white" stroke-width="1.25"/>
</mask>
<g mask="url(#mask0_1656_8936)">
<path d="M66.2148 287.584C68.9537 286.94 76.0748 286.617 82.6482 290.484C78.7815 267.284 104.882 245.051 132.432 267.284C130.015 252.301 145.965 238.768 161.432 249.884C161.432 240.217 172.548 236.834 177.865 245.534C190.432 238.284 198.648 206.771 198.648 42.0508H208.798C208.798 110.201 208.798 245.534 230.548 245.534C233.932 241.184 242.632 241.667 242.632 249.884C251.815 236.834 275.982 243.117 266.798 265.351C272.115 262.129 283.232 259.164 285.165 273.084C300.148 254.234 327.698 259.067 327.698 287.584C329.47 285.973 334.562 283.041 340.748 284.201" stroke="white"/>
<path d="M255.201 313.684C250.368 308.367 242.151 308.367 239.251 315.251C214.891 276.971 186.568 296.401 175.451 310.901C168.362 306.591 155.151 303.534 147.418 313.684" stroke="white" stroke-linecap="round"/>
<path d="M185.117 247.951C187.567 245.63 192.286 237.429 195.064 221.367" stroke="white" stroke-linecap="round"/>
<path d="M222.332 247.951C219.271 245.051 212.665 232.967 210.732 207.834" stroke="white" stroke-linecap="round"/>
<path d="M193.816 253.268C195.75 247.952 201.066 234.418 201.066 186.568" stroke="white" stroke-linecap="round"/>
<ellipse cx="163.365" cy="101.5" rx="0.96666" ry="0.966663" fill="white"/>
<circle cx="93.7674" cy="146.933" r="0.966667" fill="white"/>
<circle cx="323.834" cy="225.234" r="0.966675" fill="white"/>
<ellipse cx="345.099" cy="168.201" rx="0.96666" ry="0.966667" fill="white"/>
<ellipse cx="247.467" cy="146.933" rx="0.96666" ry="0.966667" fill="white"/>
<ellipse cx="118.9" cy="225.234" rx="0.966667" ry="0.966675" fill="white"/>
<ellipse cx="265.834" cy="69.6014" rx="0.966675" ry="0.966671" fill="white"/>
<ellipse cx="286.616" cy="102.95" rx="0.483322" ry="0.483334" fill="white"/>
<circle cx="295.315" cy="113.585" r="0.483337" fill="white"/>
<ellipse cx="256.651" cy="151.284" rx="0.483337" ry="0.48333" fill="white"/>
<ellipse cx="218.948" cy="78.7841" rx="0.483337" ry="0.483334" fill="white"/>
<ellipse cx="186.085" cy="134.851" rx="0.48333" ry="0.483322" fill="white"/>
<ellipse cx="130.018" cy="79.7509" rx="0.48333" ry="0.483334" fill="white"/>
<ellipse cx="58.4833" cy="194.784" rx="0.483332" ry="0.483345" fill="white"/>
<circle cx="133.882" cy="217.983" r="0.483337" fill="white"/>
<ellipse cx="133.882" cy="147.417" rx="0.483337" ry="0.48333" fill="white"/>
<ellipse cx="179.315" cy="210.251" rx="0.483337" ry="0.483353" fill="white"/>
<circle cx="264.382" cy="224.751" r="0.483337" fill="white"/>
<circle cx="311.749" cy="240.218" r="0.483337" fill="white"/>
<circle cx="304.018" cy="231.517" r="0.483337" fill="white"/>
<ellipse cx="348.483" cy="193.817" rx="0.483337" ry="0.483322" fill="white"/>
<ellipse cx="290.483" cy="174.483" rx="0.483322" ry="0.48333" fill="white"/>
</g>
</g>
<defs>
<clipPath id="clip0_1656_8936">
<rect width="406" height="406" fill="white"/>
</clipPath>
</defs>
</svg>
